# xmcd
#
# Track frame offsets: 
#        150
#        13647
#        27600
#        38020
#        49180
#        61837
#        71907
#        81800
#        93707
#        105140
#        116747
#        127380
#        140272
#        153242
#        165315
#        177475
#        189032
#        198680
#        209417
#        220295
#        230855
#        240905
#        249567
#        260840
#
# Disc length: 3574 seconds
#
# Revision: 4
# Processed by: cddbd v1.5.2PL0 Copyright (c) Steve Scherf et al.
# Submitted via: ExactAudioCopy v0.95b3
#
DISCID=5d0df418
DTITLE=Bill Monroe - The Music of Bill Monroe [disc 2: 1952-1959]
DYEAR=1994
DGENRE=Bluegrass
TTITLE0=Memories of Mother and Dad [1952]
TTITLE1=The Little Girl and the Dreadful Snake [1952]
TTITLE2=Y'all Come [1954]
TTITLE3=Sitting Alone in the Moonlight [1954]
TTITLE4=On and On [1954]
TTITLE5=White House Blues [1954]
TTITLE6=Happy on My Way [1954]
TTITLE7=A Voice from On High [1954]
TTITLE8=Close By [1954]
TTITLE9=Put My Little Shoes Away [1954]
TTITLE10=Wheel Hoss [1954]
TTITLE11=Cheyenne [1954]
TTITLE12=You'll Find Her Name Written There [1954]
TTITLE13=Roanoke [1954]
TTITLE14=Blue Moon of Kentucky [1955]
TTITLE15=The Girl in the Blue Velvet Band [1955]
TTITLE16=Used to Be [1955]
TTITLE17=A Good Woman's Love [1957]
TTITLE18=Cry, Cry Darlin' [1957]
TTITLE19=I'm Sittin' on Top of the World [1957]
TTITLE20=I'll Meet You in the Morning [1958]
TTITLE21=Scotland [1958]
TTITLE22=Molly and Tenbrooks [1958]
TTITLE23=John Henry [1959]
EXTD=4CD box set subtitle: From 1936 to 1994\nWilliam Smith "Bill" Mon
EXTD=roe (1911-09-13/1996-09-09): mandolin, vocals\n4CD: MCA MCAC/D4-1
EXTD=1048 (1994-07-19), UPC 008811104825.
EXTT0=
EXTT1=
EXTT2=
EXTT3=
EXTT4=
EXTT5=
EXTT6=
EXTT7=
EXTT8=
EXTT9=
EXTT10=
EXTT11=
EXTT12=
EXTT13=
EXTT14=
EXTT15=
EXTT16=
EXTT17=
EXTT18=
EXTT19=
EXTT20=
EXTT21=
EXTT22=
EXTT23=
PLAYORDER=
